<?xml version="1.0" encoding="UTF-8"?><svg xmlns="http://www.w3.org/2000/svg" xmlns:xlink="http://www.w3.org/1999/xlink" fill-opacity="1" color-rendering="auto" color-interpolation="auto" text-rendering="auto" stroke="black" stroke-linecap="square" width="787" stroke-miterlimit="10" shape-rendering="auto" stroke-opacity="1" fill="black" stroke-dasharray="none" font-weight="normal" stroke-width="1" height="240" font-family="'Dialog'" font-style="normal" stroke-linejoin="miter" font-size="12px" stroke-dashoffset="0" image-rendering="auto">
  <!--Generated by ySVG 2.5-->
  <defs id="genericDefs"/>
  <g>
    <defs id="defs1">
      <clipPath clipPathUnits="userSpaceOnUse" id="clipPath1">
        <path d="M0 0 L787 0 L787 240 L0 240 L0 0 Z"/>
      </clipPath>
      <clipPath clipPathUnits="userSpaceOnUse" id="clipPath2">
        <path d="M483 534 L1270 534 L1270 774 L483 774 L483 534 Z"/>
      </clipPath>
    </defs>
    <g fill="white" text-rendering="geometricPrecision" shape-rendering="geometricPrecision" transform="translate(-483,-534)" stroke="white">
      <rect x="483" width="787" height="240" y="534" clip-path="url(#clipPath2)" stroke="none"/>
    </g>
    <g fill="rgb(255,204,0)" text-rendering="geometricPrecision" shape-rendering="geometricPrecision" transform="matrix(1,0,0,1,-483,-534)" stroke="rgb(255,204,0)">
      <ellipse rx="27.5" ry="15" clip-path="url(#clipPath2)" cx="949" cy="564" stroke="none"/>
    </g>
    <g text-rendering="geometricPrecision" stroke-miterlimit="1.45" shape-rendering="geometricPrecision" transform="matrix(1,0,0,1,-483,-534)" stroke-linecap="butt">
      <ellipse rx="27.5" fill="none" ry="15" clip-path="url(#clipPath2)" cx="949" cy="564"/>
      <text x="937.3838" xml:space="preserve" y="568.1543" clip-path="url(#clipPath2)" font-family="sans-serif" stroke="none">sort</text>
    </g>
    <g fill="rgb(255,204,0)" text-rendering="geometricPrecision" shape-rendering="geometricPrecision" transform="matrix(1,0,0,1,-483,-534)" stroke="rgb(255,204,0)">
      <ellipse rx="23" ry="15" clip-path="url(#clipPath2)" cx="1049" cy="564" stroke="none"/>
    </g>
    <g text-rendering="geometricPrecision" stroke-miterlimit="1.45" shape-rendering="geometricPrecision" transform="matrix(1,0,0,1,-483,-534)" stroke-linecap="butt">
      <ellipse rx="23" fill="none" ry="15" clip-path="url(#clipPath2)" cx="1049" cy="564"/>
      <text x="1028.5479" xml:space="preserve" y="568.1543" clip-path="url(#clipPath2)" font-family="sans-serif" stroke="none">uniq -c</text>
    </g>
    <g fill="rgb(255,204,0)" text-rendering="geometricPrecision" shape-rendering="geometricPrecision" transform="matrix(1,0,0,1,-483,-534)" stroke="rgb(255,204,0)">
      <ellipse rx="46.5" ry="15" clip-path="url(#clipPath2)" cx="544.75" cy="654" stroke="none"/>
    </g>
    <g text-rendering="geometricPrecision" stroke-miterlimit="1.45" shape-rendering="geometricPrecision" transform="matrix(1,0,0,1,-483,-534)" stroke-linecap="butt">
      <ellipse rx="46.5" fill="none" ry="15" clip-path="url(#clipPath2)" cx="544.75" cy="654"/>
      <text x="505.7617" xml:space="preserve" y="658.1543" clip-path="url(#clipPath2)" font-family="sans-serif" stroke="none">Scatter input</text>
    </g>
    <g fill="rgb(255,204,0)" text-rendering="geometricPrecision" shape-rendering="geometricPrecision" transform="matrix(1,0,0,1,-483,-534)" stroke="rgb(255,204,0)">
      <ellipse rx="46.5" ry="15" clip-path="url(#clipPath2)" cx="1208.5" cy="654" stroke="none"/>
    </g>
    <g text-rendering="geometricPrecision" stroke-miterlimit="1.45" shape-rendering="geometricPrecision" transform="matrix(1,0,0,1,-483,-534)" stroke-linecap="butt">
      <ellipse rx="46.5" fill="none" ry="15" clip-path="url(#clipPath2)" cx="1208.5" cy="654"/>
      <text x="1189.665" xml:space="preserve" y="658.1543" clip-path="url(#clipPath2)" font-family="sans-serif" stroke="none">Merge</text>
    </g>
    <g fill="rgb(255,204,0)" text-rendering="geometricPrecision" shape-rendering="geometricPrecision" transform="matrix(1,0,0,1,-483,-534)" stroke="rgb(255,204,0)">
      <ellipse rx="60.5" ry="15" clip-path="url(#clipPath2)" cx="707" cy="564" stroke="none"/>
    </g>
    <g text-rendering="geometricPrecision" stroke-miterlimit="1.45" shape-rendering="geometricPrecision" transform="matrix(1,0,0,1,-483,-534)" stroke-linecap="butt">
      <ellipse rx="60.5" fill="none" ry="15" clip-path="url(#clipPath2)" cx="707" cy="564"/>
      <text x="660.6348" xml:space="preserve" y="568.1543" clip-path="url(#clipPath2)" font-family="sans-serif" stroke="none">tr -s '[:digit:]' ' '</text>
      <text x="837.6621" y="568.1543" clip-path="url(#clipPath2)" font-family="sans-serif" stroke="none" font-weight="bold" xml:space="preserve">...</text>
    </g>
    <g fill="rgb(255,204,0)" text-rendering="geometricPrecision" shape-rendering="geometricPrecision" transform="matrix(1,0,0,1,-483,-534)" stroke="rgb(255,204,0)">
      <ellipse rx="27.5" ry="15" clip-path="url(#clipPath2)" cx="949" cy="624" stroke="none"/>
    </g>
    <g text-rendering="geometricPrecision" stroke-miterlimit="1.45" shape-rendering="geometricPrecision" transform="matrix(1,0,0,1,-483,-534)" stroke-linecap="butt">
      <ellipse rx="27.5" fill="none" ry="15" clip-path="url(#clipPath2)" cx="949" cy="624"/>
      <text x="937.3838" xml:space="preserve" y="628.1543" clip-path="url(#clipPath2)" font-family="sans-serif" stroke="none">sort</text>
    </g>
    <g fill="rgb(255,204,0)" text-rendering="geometricPrecision" shape-rendering="geometricPrecision" transform="matrix(1,0,0,1,-483,-534)" stroke="rgb(255,204,0)">
      <ellipse rx="23" ry="15" clip-path="url(#clipPath2)" cx="1049" cy="624" stroke="none"/>
    </g>
    <g text-rendering="geometricPrecision" stroke-miterlimit="1.45" shape-rendering="geometricPrecision" transform="matrix(1,0,0,1,-483,-534)" stroke-linecap="butt">
      <ellipse rx="23" fill="none" ry="15" clip-path="url(#clipPath2)" cx="1049" cy="624"/>
      <text x="1028.5479" xml:space="preserve" y="628.1543" clip-path="url(#clipPath2)" font-family="sans-serif" stroke="none">uniq -c</text>
    </g>
    <g fill="rgb(255,204,0)" text-rendering="geometricPrecision" shape-rendering="geometricPrecision" transform="matrix(1,0,0,1,-483,-534)" stroke="rgb(255,204,0)">
      <ellipse rx="60.5" ry="15" clip-path="url(#clipPath2)" cx="707" cy="624" stroke="none"/>
    </g>
    <g text-rendering="geometricPrecision" stroke-miterlimit="1.45" shape-rendering="geometricPrecision" transform="matrix(1,0,0,1,-483,-534)" stroke-linecap="butt">
      <ellipse rx="60.5" fill="none" ry="15" clip-path="url(#clipPath2)" cx="707" cy="624"/>
      <text x="660.6348" xml:space="preserve" y="628.1543" clip-path="url(#clipPath2)" font-family="sans-serif" stroke="none">tr -s '[:digit:]' ' '</text>
      <text x="837.6621" y="628.1543" clip-path="url(#clipPath2)" font-family="sans-serif" stroke="none" font-weight="bold" xml:space="preserve">...</text>
    </g>
    <g fill="rgb(255,204,0)" text-rendering="geometricPrecision" shape-rendering="geometricPrecision" transform="matrix(1,0,0,1,-483,-534)" stroke="rgb(255,204,0)">
      <ellipse rx="27.5" ry="15" clip-path="url(#clipPath2)" cx="949" cy="684" stroke="none"/>
    </g>
    <g text-rendering="geometricPrecision" stroke-miterlimit="1.45" shape-rendering="geometricPrecision" transform="matrix(1,0,0,1,-483,-534)" stroke-linecap="butt">
      <ellipse rx="27.5" fill="none" ry="15" clip-path="url(#clipPath2)" cx="949" cy="684"/>
      <text x="937.3838" xml:space="preserve" y="688.1543" clip-path="url(#clipPath2)" font-family="sans-serif" stroke="none">sort</text>
    </g>
    <g fill="rgb(255,204,0)" text-rendering="geometricPrecision" shape-rendering="geometricPrecision" transform="matrix(1,0,0,1,-483,-534)" stroke="rgb(255,204,0)">
      <ellipse rx="23" ry="15" clip-path="url(#clipPath2)" cx="1049" cy="684" stroke="none"/>
    </g>
    <g text-rendering="geometricPrecision" stroke-miterlimit="1.45" shape-rendering="geometricPrecision" transform="matrix(1,0,0,1,-483,-534)" stroke-linecap="butt">
      <ellipse rx="23" fill="none" ry="15" clip-path="url(#clipPath2)" cx="1049" cy="684"/>
      <text x="1028.5479" xml:space="preserve" y="688.1543" clip-path="url(#clipPath2)" font-family="sans-serif" stroke="none">uniq -c</text>
    </g>
    <g fill="rgb(255,204,0)" text-rendering="geometricPrecision" shape-rendering="geometricPrecision" transform="matrix(1,0,0,1,-483,-534)" stroke="rgb(255,204,0)">
      <ellipse rx="60.5" ry="15" clip-path="url(#clipPath2)" cx="707" cy="684" stroke="none"/>
    </g>
    <g text-rendering="geometricPrecision" stroke-miterlimit="1.45" shape-rendering="geometricPrecision" transform="matrix(1,0,0,1,-483,-534)" stroke-linecap="butt">
      <ellipse rx="60.5" fill="none" ry="15" clip-path="url(#clipPath2)" cx="707" cy="684"/>
      <text x="660.6348" xml:space="preserve" y="688.1543" clip-path="url(#clipPath2)" font-family="sans-serif" stroke="none">tr -s '[:digit:]' ' '</text>
      <text x="837.6621" y="688.1543" clip-path="url(#clipPath2)" font-family="sans-serif" stroke="none" font-weight="bold" xml:space="preserve">...</text>
    </g>
    <g fill="rgb(255,204,0)" text-rendering="geometricPrecision" shape-rendering="geometricPrecision" transform="matrix(1,0,0,1,-483,-534)" stroke="rgb(255,204,0)">
      <ellipse rx="27.5" ry="15" clip-path="url(#clipPath2)" cx="949" cy="744" stroke="none"/>
    </g>
    <g text-rendering="geometricPrecision" stroke-miterlimit="1.45" shape-rendering="geometricPrecision" transform="matrix(1,0,0,1,-483,-534)" stroke-linecap="butt">
      <ellipse rx="27.5" fill="none" ry="15" clip-path="url(#clipPath2)" cx="949" cy="744"/>
      <text x="937.3838" xml:space="preserve" y="748.1543" clip-path="url(#clipPath2)" font-family="sans-serif" stroke="none">sort</text>
    </g>
    <g fill="rgb(255,204,0)" text-rendering="geometricPrecision" shape-rendering="geometricPrecision" transform="matrix(1,0,0,1,-483,-534)" stroke="rgb(255,204,0)">
      <ellipse rx="23" ry="15" clip-path="url(#clipPath2)" cx="1049" cy="744" stroke="none"/>
    </g>
    <g text-rendering="geometricPrecision" stroke-miterlimit="1.45" shape-rendering="geometricPrecision" transform="matrix(1,0,0,1,-483,-534)" stroke-linecap="butt">
      <ellipse rx="23" fill="none" ry="15" clip-path="url(#clipPath2)" cx="1049" cy="744"/>
      <text x="1028.5479" xml:space="preserve" y="748.1543" clip-path="url(#clipPath2)" font-family="sans-serif" stroke="none">uniq -c</text>
    </g>
    <g fill="rgb(255,204,0)" text-rendering="geometricPrecision" shape-rendering="geometricPrecision" transform="matrix(1,0,0,1,-483,-534)" stroke="rgb(255,204,0)">
      <ellipse rx="60.5" ry="15" clip-path="url(#clipPath2)" cx="707" cy="744" stroke="none"/>
    </g>
    <g text-rendering="geometricPrecision" stroke-miterlimit="1.45" shape-rendering="geometricPrecision" transform="matrix(1,0,0,1,-483,-534)" stroke-linecap="butt">
      <ellipse rx="60.5" fill="none" ry="15" clip-path="url(#clipPath2)" cx="707" cy="744"/>
      <text x="660.6348" xml:space="preserve" y="748.1543" clip-path="url(#clipPath2)" font-family="sans-serif" stroke="none">tr -s '[:digit:]' ' '</text>
      <text x="837.6621" y="748.1543" clip-path="url(#clipPath2)" font-family="sans-serif" stroke="none" font-weight="bold" xml:space="preserve">...</text>
      <path fill="none" d="M976.5 564 L1018 564" clip-path="url(#clipPath2)"/>
      <path d="M1026 564 L1014 559 L1017 564 L1014 569 Z" clip-path="url(#clipPath2)" stroke="none"/>
      <path fill="none" d="M1066.3934 573.8145 L1178.4543 637.0464" clip-path="url(#clipPath2)"/>
      <path d="M1185.4218 640.9778 L1177.4279 630.7261 L1177.5835 636.555 L1172.5135 639.4353 Z" clip-path="url(#clipPath2)" stroke="none"/>
      <path fill="none" d="M568.1262 641.0332 L675.3164 581.5749" clip-path="url(#clipPath2)"/>
      <path d="M682.3122 577.6943 L669.3931 579.1428 L674.4419 582.06 L674.2438 587.8876 Z" clip-path="url(#clipPath2)" stroke="none"/>
      <path fill="none" d="M767.5 564 L809 564" clip-path="url(#clipPath2)"/>
      <path d="M817 564 L805 559 L808 564 L805 569 Z" clip-path="url(#clipPath2)" stroke="none"/>
      <path fill="none" d="M872 564 L913.5 564" clip-path="url(#clipPath2)"/>
      <path d="M921.5 564 L909.5 559 L912.5 564 L909.5 569 Z" clip-path="url(#clipPath2)" stroke="none"/>
      <path fill="none" d="M976.5 624 L1018 624" clip-path="url(#clipPath2)"/>
      <path d="M1026 624 L1014 619 L1017 624 L1014 629 Z" clip-path="url(#clipPath2)" stroke="none"/>
      <path fill="none" d="M1071.0992 628.1566 L1160.4675 644.9657" clip-path="url(#clipPath2)"/>
      <path d="M1168.3297 646.4445 L1157.4607 639.3125 L1159.4847 644.7809 L1155.6123 649.1402 Z" clip-path="url(#clipPath2)" stroke="none"/>
      <path fill="none" d="M585.0927 646.5406 L650.6349 634.4219" clip-path="url(#clipPath2)"/>
      <path d="M658.5015 632.9673 L645.7925 630.2325 L649.6516 634.6037 L647.6106 640.0658 Z" clip-path="url(#clipPath2)" stroke="none"/>
      <path fill="none" d="M767.5 624 L809 624" clip-path="url(#clipPath2)"/>
      <path d="M817 624 L805 619 L808 624 L805 629 Z" clip-path="url(#clipPath2)" stroke="none"/>
      <path fill="none" d="M872 624 L913.5 624" clip-path="url(#clipPath2)"/>
      <path d="M921.5 624 L909.5 619 L912.5 624 L909.5 629 Z" clip-path="url(#clipPath2)" stroke="none"/>
      <path fill="none" d="M976.5 684 L1018 684" clip-path="url(#clipPath2)"/>
      <path d="M1026 684 L1014 679 L1017 684 L1014 689 Z" clip-path="url(#clipPath2)" stroke="none"/>
      <path fill="none" d="M1071.0992 679.8434 L1160.4675 663.0343" clip-path="url(#clipPath2)"/>
      <path d="M1168.3297 661.5555 L1155.6123 658.8598 L1159.4847 663.2191 L1157.4607 668.6875 Z" clip-path="url(#clipPath2)" stroke="none"/>
      <path fill="none" d="M585.0927 661.4594 L650.6349 673.5781" clip-path="url(#clipPath2)"/>
      <path d="M658.5015 675.0327 L647.6106 667.9342 L649.6516 673.3963 L645.7925 677.7675 Z" clip-path="url(#clipPath2)" stroke="none"/>
      <path fill="none" d="M767.5 684 L809 684" clip-path="url(#clipPath2)"/>
      <path d="M817 684 L805 679 L808 684 L805 689 Z" clip-path="url(#clipPath2)" stroke="none"/>
      <path fill="none" d="M872 684 L913.5 684" clip-path="url(#clipPath2)"/>
      <path d="M921.5 684 L909.5 679 L912.5 684 L909.5 689 Z" clip-path="url(#clipPath2)" stroke="none"/>
      <path fill="none" d="M976.5 744 L1018 744" clip-path="url(#clipPath2)"/>
      <path d="M1026 744 L1014 739 L1017 744 L1014 749 Z" clip-path="url(#clipPath2)" stroke="none"/>
      <path fill="none" d="M1066.3934 734.1855 L1178.4543 670.9536" clip-path="url(#clipPath2)"/>
      <path d="M1185.4218 667.0222 L1172.5135 668.5647 L1177.5835 671.445 L1177.4279 677.2739 Z" clip-path="url(#clipPath2)" stroke="none"/>
      <path fill="none" d="M568.1262 666.9668 L675.3164 726.4251" clip-path="url(#clipPath2)"/>
      <path d="M682.3122 730.3057 L674.2438 720.1124 L674.4419 725.94 L669.3931 728.8572 Z" clip-path="url(#clipPath2)" stroke="none"/>
      <path fill="none" d="M767.5 744 L809 744" clip-path="url(#clipPath2)"/>
      <path d="M817 744 L805 739 L808 744 L805 749 Z" clip-path="url(#clipPath2)" stroke="none"/>
      <path fill="none" d="M872 744 L913.5 744" clip-path="url(#clipPath2)"/>
      <path d="M921.5 744 L909.5 739 L912.5 744 L909.5 749 Z" clip-path="url(#clipPath2)" stroke="none"/>
    </g>
  </g>
</svg>
