<?xml version="1.0" encoding="UTF-8"?><svg xmlns="http://www.w3.org/2000/svg" xmlns:xlink="http://www.w3.org/1999/xlink" fill-opacity="1" color-rendering="auto" color-interpolation="auto" text-rendering="auto" stroke="black" stroke-linecap="square" width="1218" stroke-miterlimit="10" shape-rendering="auto" stroke-opacity="1" fill="black" stroke-dasharray="none" font-weight="normal" stroke-width="1" height="814" font-family="'Dialog'" font-style="normal" stroke-linejoin="miter" font-size="12px" stroke-dashoffset="0" image-rendering="auto">
  <!--Generated by ySVG 2.5-->
  <defs id="genericDefs"/>
  <g>
    <defs id="defs1">
      <clipPath clipPathUnits="userSpaceOnUse" id="clipPath1">
        <path d="M0 0 L1218 0 L1218 814 L0 814 L0 0 Z"/>
      </clipPath>
      <clipPath clipPathUnits="userSpaceOnUse" id="clipPath2">
        <path d="M440 257 L1658 257 L1658 1071 L440 1071 L440 257 Z"/>
      </clipPath>
    </defs>
    <g text-rendering="geometricPrecision" stroke-miterlimit="1.45" stroke-width="3" shape-rendering="geometricPrecision" transform="matrix(1,0,0,1,-440,-257)" stroke-linecap="butt">
      <circle fill="none" r="392" clip-path="url(#clipPath2)" cx="1049" cy="664"/>
    </g>
    <g fill="rgb(255,204,0)" text-rendering="geometricPrecision" shape-rendering="geometricPrecision" transform="matrix(1,0,0,1,-440,-257)" stroke="rgb(255,204,0)">
      <rect x="1196.5" width="30" height="84" y="622" clip-path="url(#clipPath2)" stroke="none"/>
    </g>
    <g text-rendering="geometricPrecision" stroke-miterlimit="1.45" shape-rendering="geometricPrecision" transform="matrix(1,0,0,1,-440,-257)" stroke-linecap="butt">
      <rect fill="none" x="1196.5" width="30" height="84" y="622" clip-path="url(#clipPath2)"/>
    </g>
    <g fill="rgb(255,204,0)" text-rendering="geometricPrecision" shape-rendering="geometricPrecision" transform="matrix(1,0,0,1,-440,-257)" stroke="rgb(255,204,0)">
      <circle r="15" clip-path="url(#clipPath2)" cx="657" cy="664" stroke="none"/>
    </g>
    <g text-rendering="geometricPrecision" stroke-miterlimit="1.45" shape-rendering="geometricPrecision" transform="matrix(1,0,0,1,-440,-257)" stroke-linecap="butt">
      <circle fill="none" r="15" clip-path="url(#clipPath2)" cx="657" cy="664"/>
    </g>
    <g fill="rgb(255,204,0)" text-rendering="geometricPrecision" shape-rendering="geometricPrecision" transform="matrix(1,0,0,1,-440,-257)" stroke="rgb(255,204,0)">
      <circle r="15" clip-path="url(#clipPath2)" cx="1441" cy="664" stroke="none"/>
    </g>
    <g text-rendering="geometricPrecision" stroke-miterlimit="1.45" shape-rendering="geometricPrecision" transform="matrix(1,0,0,1,-440,-257)" stroke-linecap="butt">
      <circle fill="none" r="15" clip-path="url(#clipPath2)" cx="1441" cy="664"/>
    </g>
    <g fill="rgb(255,204,0)" text-rendering="geometricPrecision" shape-rendering="geometricPrecision" transform="matrix(1,0,0,1,-440,-257)" stroke="rgb(255,204,0)">
      <circle r="15" clip-path="url(#clipPath2)" cx="1391" cy="853" stroke="none"/>
    </g>
    <g text-rendering="geometricPrecision" stroke-miterlimit="1.45" shape-rendering="geometricPrecision" transform="matrix(1,0,0,1,-440,-257)" stroke-linecap="butt">
      <circle fill="none" r="15" clip-path="url(#clipPath2)" cx="1391" cy="853"/>
    </g>
    <g fill="rgb(255,204,0)" text-rendering="geometricPrecision" shape-rendering="geometricPrecision" transform="matrix(1,0,0,1,-440,-257)" stroke="rgb(255,204,0)">
      <circle r="15" clip-path="url(#clipPath2)" cx="1391" cy="470" stroke="none"/>
    </g>
    <g text-rendering="geometricPrecision" stroke-miterlimit="1.45" shape-rendering="geometricPrecision" transform="matrix(1,0,0,1,-440,-257)" stroke-linecap="butt">
      <circle fill="none" r="15" clip-path="url(#clipPath2)" cx="1391" cy="470"/>
    </g>
    <g fill="rgb(255,204,0)" text-rendering="geometricPrecision" shape-rendering="geometricPrecision" transform="matrix(1,0,0,1,-440,-257)" stroke="rgb(255,204,0)">
      <rect x="871.5" width="355" height="84" y="622" clip-path="url(#clipPath2)" stroke="none"/>
    </g>
    <g text-rendering="geometricPrecision" stroke-miterlimit="1.45" shape-rendering="geometricPrecision" transform="matrix(1,0,0,1,-440,-257)" stroke-linecap="butt">
      <rect fill="none" x="871.5" width="355" height="84" y="622" clip-path="url(#clipPath2)"/>
      <text x="949.0381" font-size="28px" y="673.6934" clip-path="url(#clipPath2)" font-family="sans-serif" stroke="none" xml:space="preserve">request buffer</text>
      <text x="954.3594" font-size="32px" y="413.0781" clip-path="url(#clipPath2)" font-family="sans-serif" stroke="none" xml:space="preserve">Print Server</text>
      <path fill="none" d="M1226.5 664 L1417 664" stroke-width="2" clip-path="url(#clipPath2)"/>
      <path d="M1426 664 L1412.5 658.375 L1415.875 664 L1412.5 669.625 Z" stroke-width="2" clip-path="url(#clipPath2)" stroke="none"/>
      <path fill="none" d="M1226.5 679.7939 L1374.4724 835.5977" stroke-width="2" clip-path="url(#clipPath2)"/>
      <path d="M1380.6703 842.1235 L1375.4521 828.4611 L1373.6978 834.782 L1367.2949 836.2084 Z" stroke-width="2" clip-path="url(#clipPath2)" stroke="none"/>
      <path fill="none" d="M1226.5 647.7883 L1374.7006 487.6161" stroke-width="2" clip-path="url(#clipPath2)"/>
      <path d="M1380.8129 481.0101 L1367.5156 487.0989 L1373.9365 488.4419 L1375.7732 494.7393 Z" stroke-width="2" clip-path="url(#clipPath2)" stroke="none"/>
      <path fill="none" d="M672 664 L862.5 664" stroke-width="2" clip-path="url(#clipPath2)"/>
      <path d="M871.5 664 L858 658.375 L861.375 664 L858 669.625 Z" stroke-width="2" clip-path="url(#clipPath2)" stroke="none"/>
      <path fill="none" d="M485 664 L633 664" stroke-width="2" clip-path="url(#clipPath2)"/>
      <path d="M642 664 L628.5 658.375 L631.875 664 L628.5 669.625 Z" stroke-width="2" clip-path="url(#clipPath2)" stroke="none"/>
      <text x="496.3662" font-size="20px" y="657.2832" clip-path="url(#clipPath2)" font-family="sans-serif" stroke="none" xml:space="preserve">input request</text>
      <path fill="none" d="M1406 470 L1604 470" stroke-width="2" clip-path="url(#clipPath2)"/>
      <path d="M1613 470 L1599.5 464.375 L1602.875 470 L1599.5 475.625 Z" stroke-width="2" clip-path="url(#clipPath2)" stroke="none"/>
      <text x="1466.1992" font-size="20px" y="461.2832" clip-path="url(#clipPath2)" font-family="sans-serif" stroke="none" xml:space="preserve">printer 1</text>
      <path fill="none" d="M1456 664 L1604 664" stroke-width="2" clip-path="url(#clipPath2)"/>
      <path d="M1613 664 L1599.5 658.375 L1602.875 664 L1599.5 669.625 Z" stroke-width="2" clip-path="url(#clipPath2)" stroke="none"/>
      <text x="1491.1992" font-size="20px" y="655.2832" clip-path="url(#clipPath2)" font-family="sans-serif" stroke="none" xml:space="preserve">printer 2</text>
      <path fill="none" d="M1406 853 L1604 853" stroke-width="2" clip-path="url(#clipPath2)"/>
      <path d="M1613 853 L1599.5 847.375 L1602.875 853 L1599.5 858.625 Z" stroke-width="2" clip-path="url(#clipPath2)" stroke="none"/>
      <text x="1466.1992" font-size="20px" y="844.2832" clip-path="url(#clipPath2)" font-family="sans-serif" stroke="none" xml:space="preserve">printer 3</text>
    </g>
  </g>
</svg>
